<svg width="326" height="80" viewBox="0 0 326 80" fill="none" xmlns="http://www.w3.org/2000/svg">
<path d="M7 20.0741C7 19.4688 7.17973 18.9718 7.53918 18.5831C7.90377 18.1944 8.36592 18 8.92564 18C9.48023 18 9.93982 18.1944 10.3044 18.5831C10.6639 18.9718 10.8436 19.4688 10.8436 20.0741V45.8802C10.8436 47.9405 11.3288 49.7786 12.2994 51.3946C13.2699 53.0106 14.6256 54.274 16.3663 55.1847C18.1071 56.0899 20.0944 56.5425 22.3281 56.5425C24.5311 56.5425 26.4875 56.0899 28.1975 55.1847C29.9075 54.274 31.2477 53.0106 32.2182 51.3946C33.1836 49.7786 33.6663 47.9405 33.6663 45.8802V20.0741C33.6663 19.4688 33.8486 18.9718 34.2132 18.5831C34.5727 18.1944 35.0323 18 35.592 18C36.1517 18 36.6113 18.1944 36.9707 18.5831C37.3353 18.9718 37.5176 19.4688 37.5176 20.0741V45.8802C37.5176 48.6846 36.868 51.1975 35.5689 53.4188C34.2697 55.6401 32.4699 57.3727 30.1694 58.6167C27.8689 59.8606 25.2551 60.4826 22.3281 60.4826C19.3703 60.4826 16.7258 59.8606 14.3945 58.6167C12.0632 57.3727 10.2479 55.6401 8.94875 53.4188C7.64958 51.1975 7 48.6846 7 45.8802V20.0741ZM59.6471 30.1533C61.9836 30.1533 64.0787 30.6865 65.9324 31.7527C67.7913 32.8189 69.2471 34.3738 70.2998 36.4174C71.3473 38.461 71.8711 40.9045 71.8711 43.7478V57.6087C71.8711 58.1752 71.6914 58.6555 71.3319 59.0498C70.9725 59.4385 70.5283 59.6329 69.9994 59.6329C69.4397 59.6329 68.9801 59.4385 68.6206 59.0498C68.2612 58.6555 68.0815 58.1752 68.0815 57.6087V43.7478C68.0815 40.5824 67.2675 38.175 65.6397 36.5257C64.0119 34.8709 61.8834 34.0434 59.2543 34.0434C57.6419 34.0434 56.1887 34.3822 54.8946 35.0597C53.5955 35.7316 52.5685 36.6646 51.8136 37.8585C51.0536 39.0469 50.6736 40.3686 50.6736 41.8236V57.6087C50.6736 58.214 50.5016 58.7027 50.1576 59.0748C49.8135 59.4469 49.3616 59.6329 48.8019 59.6329C48.2422 59.6329 47.7826 59.4469 47.4231 59.0748C47.0637 58.7027 46.884 58.214 46.884 57.6087V32.5524C46.884 31.9471 47.0637 31.45 47.4231 31.0613C47.7826 30.667 48.2422 30.4699 48.8019 30.4699C49.3616 30.4699 49.8135 30.667 50.1576 31.0613C50.5016 31.45 50.6736 31.9471 50.6736 32.5524V34.3599C51.7623 33.0494 53.0768 32.0192 54.6173 31.2696C56.163 30.5254 57.8396 30.1533 59.6471 30.1533ZM89.5716 30.2033C91.7386 30.2033 93.6283 30.6032 95.2407 31.4028C96.8532 32.2025 98.1523 33.3132 99.1383 34.7348C99.4001 35.1957 99.5311 35.6039 99.5311 35.9593C99.5311 36.5646 99.2666 37.045 98.7377 37.4004C98.5118 37.5781 98.2011 37.6669 97.8057 37.6669C97.1125 37.6669 96.5374 37.4004 96.0803 36.8673C94.4679 34.8792 92.265 33.8851 89.4715 33.8851C87.664 33.8851 86.2185 34.285 85.135 35.0847C84.0515 35.8843 83.5097 36.8867 83.5097 38.0917C83.5097 39.3746 84.0181 40.3964 85.0348 41.1572C86.0567 41.9235 87.8642 42.5371 90.4574 42.9981C93.975 43.6367 96.4886 44.6779 97.9983 46.1218C99.5131 47.5601 100.271 49.3455 100.271 51.4779C100.271 53.1106 99.8187 54.5683 98.9149 55.8511C98.0111 57.1284 96.753 58.1224 95.1406 58.8332C93.5333 59.5441 91.7104 59.8995 89.6718 59.8995C87.6332 59.8995 85.6767 59.5274 83.8024 58.7833C81.9281 58.0336 80.4159 56.984 79.2656 55.6345C78.937 55.2069 78.7726 54.7988 78.7726 54.41C78.7726 53.8047 79.0371 53.2716 79.566 52.8107C79.9614 52.4886 80.3722 52.3276 80.7984 52.3276C81.3581 52.3276 81.8331 52.5775 82.2234 53.0773C83.0142 54.0713 84.0592 54.8349 85.3583 55.368C86.6575 55.9011 88.0953 56.1677 89.6718 56.1677C91.9723 56.1677 93.6977 55.7401 94.8479 54.8849C95.9982 54.0352 96.5887 52.9162 96.6195 51.5279C96.6195 50.2506 96.0444 49.1844 94.8941 48.3292C93.7439 47.4796 91.9209 46.8409 89.4253 46.4133C86.2056 45.8413 83.7973 44.8556 82.2003 43.4562C80.6084 42.0512 79.8125 40.3519 79.8125 38.3583C79.8125 35.7649 80.7394 33.7574 82.5931 32.3358C84.452 30.9141 86.7782 30.2033 89.5716 30.2033ZM120.528 30.2033C123.091 30.2033 125.417 30.8531 127.507 32.1525C129.592 33.4464 131.235 35.2318 132.437 37.5087C133.633 39.7855 134.231 42.3095 134.231 45.0805C134.231 47.8516 133.648 50.3645 132.483 52.6191C131.317 54.8793 129.723 56.6563 127.699 57.9503C125.681 59.2497 123.422 59.8995 120.921 59.8995C118.785 59.8995 116.831 59.4108 115.059 58.4334C113.283 57.456 111.819 56.1149 110.669 54.41V70.0286C110.669 70.6339 110.489 71.131 110.13 71.5197C109.765 71.914 109.306 72.1111 108.751 72.1111C108.191 72.1111 107.739 71.914 107.395 71.5197C107.046 71.131 106.872 70.6339 106.872 70.0286V58.0835C106.841 57.978 106.825 57.8198 106.825 57.6087V45.0805C106.825 42.3095 107.426 39.7855 108.628 37.5087C109.824 35.2318 111.468 33.4464 113.557 32.1525C115.642 30.8531 117.966 30.2033 120.528 30.2033ZM120.528 56.1677C122.403 56.1677 124.105 55.6873 125.635 54.7266C127.16 53.7659 128.359 52.4414 129.232 50.7532C130.1 49.065 130.534 47.1741 130.534 45.0805C130.534 42.9814 130.1 41.0877 129.232 39.3995C128.359 37.7113 127.16 36.3786 125.635 35.4012C124.105 34.4238 122.403 33.9351 120.528 33.9351C118.654 33.9351 116.962 34.4238 115.452 35.4012C113.943 36.3786 112.751 37.7113 111.878 39.3995C111.005 41.0877 110.569 42.9814 110.569 45.0805C110.569 45.6859 110.587 46.1301 110.623 46.4133C110.654 46.4855 110.669 46.5744 110.669 46.6799C110.998 49.451 112.073 51.725 113.896 53.5021C115.724 55.2791 117.935 56.1677 120.528 56.1677ZM140.694 20.0242C140.694 19.4189 140.873 18.9302 141.233 18.5581C141.597 18.186 142.042 18 142.565 18C143.125 18 143.577 18.186 143.921 18.5581C144.265 18.9302 144.437 19.4189 144.437 20.0242V50.4117C144.437 51.9388 144.725 53.1828 145.3 54.1435C145.875 55.1042 146.607 55.5846 147.495 55.5846H148.727C149.22 55.5846 149.616 55.7706 149.914 56.1427C150.206 56.5147 150.353 57.0034 150.353 57.6087C150.353 58.214 150.147 58.7027 149.737 59.0748C149.326 59.4469 148.792 59.6329 148.134 59.6329H147.495C145.492 59.6329 143.857 58.7721 142.589 57.0506C141.325 55.3236 140.694 53.1106 140.694 50.4117V20.0242ZM167.853 30.2033C170.415 30.2033 172.742 30.8531 174.832 32.1525C176.916 33.4464 178.56 35.2318 179.761 37.5087C180.958 39.7855 181.556 42.3095 181.556 45.0805V57.6087C181.556 58.1752 181.376 58.6555 181.017 59.0498C180.657 59.4385 180.198 59.6329 179.638 59.6329C179.078 59.6329 178.619 59.4469 178.259 59.0748C177.895 58.7027 177.712 58.214 177.712 57.6087V54.41C176.562 56.1149 175.101 57.456 173.33 58.4334C171.553 59.4108 169.596 59.8995 167.46 59.8995C164.965 59.8995 162.705 59.2497 160.682 57.9503C158.659 56.6563 157.064 54.8793 155.899 52.6191C154.733 50.3645 154.15 47.8516 154.15 45.0805C154.15 42.3095 154.751 39.7855 155.952 37.5087C157.149 35.2318 158.792 33.4464 160.882 32.1525C162.967 30.8531 165.291 30.2033 167.853 30.2033ZM167.853 56.1677C169.727 56.1677 171.419 55.6873 172.929 54.7266C174.444 53.7659 175.635 52.4414 176.503 50.7532C177.376 49.065 177.812 47.1741 177.812 45.0805C177.812 42.9814 177.376 41.0877 176.503 39.3995C175.635 37.7113 174.444 36.3786 172.929 35.4012C171.419 34.4238 169.727 33.9351 167.853 33.9351C165.979 33.9351 164.279 34.4238 162.754 35.4012C161.224 36.3786 160.025 37.7113 159.157 39.3995C158.284 41.0877 157.847 42.9814 157.847 45.0805C157.847 47.1741 158.284 49.065 159.157 50.7532C160.025 52.4414 161.224 53.7659 162.754 54.7266C164.279 55.6873 165.979 56.1677 167.853 56.1677ZM198.27 30.2033C200.437 30.2033 202.327 30.6032 203.94 31.4028C205.552 32.2025 206.851 33.3132 207.837 34.7348C208.099 35.1957 208.23 35.6039 208.23 35.9593C208.23 36.5646 207.965 37.045 207.437 37.4004C207.211 37.5781 206.9 37.6669 206.505 37.6669C205.811 37.6669 205.236 37.4004 204.779 36.8673C203.167 34.8792 200.964 33.8851 198.17 33.8851C196.363 33.8851 194.917 34.285 193.834 35.0847C192.75 35.8843 192.209 36.8867 192.209 38.0917C192.209 39.3746 192.717 40.3964 193.734 41.1572C194.756 41.9235 196.563 42.5371 199.156 42.9981C202.674 43.6367 205.187 44.6779 206.697 46.1218C208.212 47.5601 208.969 49.3455 208.969 51.4779C208.969 53.1106 208.517 54.5683 207.614 55.8511C206.71 57.1284 205.452 58.1224 203.839 58.8332C202.232 59.5441 200.409 59.8995 198.371 59.8995C196.332 59.8995 194.376 59.5274 192.501 58.7833C190.627 58.0336 189.115 56.984 187.964 55.6345C187.636 55.2069 187.471 54.7988 187.471 54.41C187.471 53.8047 187.736 53.2716 188.265 52.8107C188.66 52.4886 189.071 52.3276 189.497 52.3276C190.057 52.3276 190.532 52.5775 190.922 53.0773C191.713 54.0713 192.758 54.8349 194.057 55.368C195.356 55.9011 196.794 56.1677 198.371 56.1677C200.671 56.1677 202.396 55.7401 203.547 54.8849C204.697 54.0352 205.288 52.9162 205.318 51.5279C205.318 50.2506 204.743 49.1844 203.593 48.3292C202.443 47.4796 200.62 46.8409 198.124 46.4133C194.904 45.8413 192.496 44.8556 190.899 43.4562C189.307 42.0512 188.511 40.3519 188.511 38.3583C188.511 35.7649 189.438 33.7574 191.292 32.3358C193.151 30.9141 195.477 30.2033 198.27 30.2033ZM228.295 30.1533C230.626 30.1533 232.722 30.6865 234.58 31.7527C236.434 32.8189 237.887 34.3738 238.94 36.4174C239.993 38.461 240.519 40.9045 240.519 43.7478V57.6087C240.519 58.1752 240.337 58.6555 239.972 59.0498C239.613 59.4385 239.171 59.6329 238.647 59.6329C238.088 59.6329 237.626 59.4385 237.261 59.0498C236.901 58.6555 236.722 58.1752 236.722 57.6087V43.7478C236.722 40.5824 235.908 38.175 234.28 36.5257C232.652 34.8709 230.524 34.0434 227.895 34.0434C226.287 34.0434 224.834 34.3822 223.535 35.0597C222.236 35.7316 221.209 36.6646 220.454 37.8585C219.699 39.0469 219.322 40.3686 219.322 41.8236V57.6087C219.322 58.214 219.15 58.7027 218.806 59.0748C218.456 59.4469 218.004 59.6329 217.45 59.6329C216.89 59.6329 216.428 59.4469 216.063 59.0748C215.704 58.7027 215.524 58.214 215.524 57.6087V20.0741C215.524 19.4688 215.704 18.9718 216.063 18.5831C216.428 18.1944 216.89 18 217.45 18C218.004 18 218.456 18.1944 218.806 18.5831C219.15 18.9718 219.322 19.4688 219.322 20.0741V34.3599C220.405 33.0494 221.72 32.0192 223.265 31.2696C224.811 30.5254 226.488 30.1533 228.295 30.1533ZM278.277 56.7008C278.411 56.9507 278.477 57.2339 278.477 57.5504C278.477 58.1224 278.287 58.6111 277.907 59.0165C277.533 59.4274 277.081 59.6329 276.552 59.6329C275.699 59.6329 275.091 59.2053 274.726 58.3501L271.43 49.7203H252.35L249.046 58.3501C248.784 59.2053 248.193 59.6329 247.274 59.6329C246.715 59.6329 246.263 59.4274 245.919 59.0165C245.569 58.6111 245.395 58.1224 245.395 57.5504C245.395 57.195 245.446 56.8951 245.549 56.6508L260.037 19.4327C260.402 18.4776 261.026 18 261.909 18C262.798 18 263.406 18.4776 263.735 19.4327L278.277 56.7008ZM253.729 46.1468H270.097L261.909 24.7639L253.729 46.1468ZM287.89 57.5504C287.89 58.1557 287.71 58.6555 287.351 59.0498C286.986 59.4385 286.527 59.6329 285.972 59.6329C285.412 59.6329 284.95 59.4385 284.586 59.0498C284.226 58.6555 284.046 58.1557 284.046 57.5504V20.0741C284.046 19.4688 284.226 18.9718 284.586 18.5831C284.95 18.1944 285.412 18 285.972 18H295.831C298.229 18 300.373 18.5775 302.263 19.7326C304.153 20.8877 305.624 22.487 306.677 24.5307C307.724 26.5743 308.248 28.9094 308.248 31.5361C308.248 34.1295 307.724 36.4397 306.677 38.4666C305.624 40.4935 304.153 42.0762 302.263 43.2146C300.373 44.3531 298.229 44.9223 295.831 44.9223H287.89V57.5504ZM295.831 40.9239C297.505 40.9239 299 40.5241 300.314 39.7244C301.629 38.9247 302.656 37.8141 303.395 36.3924C304.135 34.9708 304.504 33.352 304.504 31.5361C304.504 29.6869 304.135 28.0431 303.395 26.6048C302.656 25.1665 301.629 24.0392 300.314 23.2229C299 22.4065 297.505 21.9984 295.831 21.9984H287.89V40.9239H295.831ZM314.217 20.0741C314.217 19.4688 314.405 18.9718 314.78 18.5831C315.16 18.1944 315.612 18 316.135 18C316.695 18 317.157 18.1944 317.522 18.5831C317.881 18.9718 318.061 19.4688 318.061 20.0741V57.5504C318.061 58.1224 317.881 58.6111 317.522 59.0165C317.157 59.4274 316.695 59.6329 316.135 59.6329C315.612 59.6329 315.16 59.4274 314.78 59.0165C314.405 58.6111 314.217 58.1224 314.217 57.5504V20.0741Z" fill="black"/>
</svg>
